<svg width="50" height="50" viewBox="0 0 50 50" fill="none" xmlns="http://www.w3.org/2000/svg">
<g clip-path="url(#clip0_418_1061)">
<path d="M25 50C38.8071 50 50 38.8071 50 25C50 11.1929 38.8071 0 25 0C11.1929 0 0 11.1929 0 25C0 38.8071 11.1929 50 25 50Z" fill="#F0F0F0"/>
<path d="M33.6956 25.0001C33.6956 27.174 29.8024 32.6087 25 32.6087C20.1975 32.6087 16.3044 27.174 16.3044 25.0001C16.3044 20.1975 20.1975 16.3044 25 16.3044C29.8024 16.3044 33.6956 20.1975 33.6956 25.0001Z" fill="#D80027"/>
<path d="M33.6956 25C33.6956 29.8025 29.8024 33.6956 25 33.6956C20.1975 33.6956 16.3044 29.8025 16.3044 25" fill="#0052B4"/>
<path d="M34.2162 32.6863L36.5217 30.3809L38.0586 31.9178L35.7532 34.2232L34.2162 32.6863Z" fill="black"/>
<path d="M30.3728 36.5288L32.6782 34.2234L34.2152 35.7604L31.9098 38.0658L30.3728 36.5288Z" fill="black"/>
<path d="M38.8275 37.297L41.1329 34.9916L42.6699 36.5285L40.3645 38.834L38.8275 37.297Z" fill="black"/>
<path d="M34.9841 41.14L37.2895 38.8346L38.8264 40.3716L36.521 42.677L34.9841 41.14Z" fill="black"/>
<path d="M36.5218 34.9918L38.8272 32.6864L40.3642 34.2234L38.0588 36.5288L36.5218 34.9918Z" fill="black"/>
<path d="M32.6793 38.8342L34.9847 36.5288L36.5217 38.0658L34.2163 40.3712L32.6793 38.8342Z" fill="black"/>
<path d="M38.8376 17.3179L32.6899 11.1701L34.2268 9.63311L40.3746 15.7809L38.8376 17.3179Z" fill="black"/>
<path d="M32.6887 15.7816L30.3833 13.4762L31.9202 11.9393L34.2256 14.2447L32.6887 15.7816Z" fill="black"/>
<path d="M36.5311 19.6249L34.2257 17.3195L35.7626 15.7826L38.068 18.088L36.5311 19.6249Z" fill="black"/>
<path d="M37.2991 11.1699L34.9937 8.86451L36.5306 7.32754L38.836 9.63296L37.2991 11.1699Z" fill="black"/>
<path d="M41.1436 15.0137L38.8381 12.7083L40.3751 11.1713L42.6805 13.4767L41.1436 15.0137Z" fill="black"/>
<path d="M8.86273 34.9874L15.0105 41.1352L13.4736 42.6722L7.32577 36.5244L8.86273 34.9874Z" fill="black"/>
<path d="M15.0102 36.5232L17.3156 38.8286L15.7787 40.3655L13.4733 38.0601L15.0102 36.5232Z" fill="black"/>
<path d="M11.1675 32.6816L13.4729 34.9871L11.9359 36.524L9.63052 34.2186L11.1675 32.6816Z" fill="black"/>
<path d="M13.4732 30.3755L19.621 36.5233L18.084 38.0602L11.9362 31.9125L13.4732 30.3755Z" fill="black"/>
<path d="M15.0099 8.85974L8.8621 15.0075L7.32513 13.4706L13.4729 7.32278L15.0099 8.85974Z" fill="black"/>
<path d="M17.3153 11.1649L11.1675 17.3127L9.63055 15.7757L15.7783 9.62795L17.3153 11.1649Z" fill="black"/>
<path d="M19.6229 13.4717L13.4751 19.6195L11.9382 18.0826L18.086 11.9348L19.6229 13.4717Z" fill="black"/>
</g>
<defs>
<clipPath id="clip0_418_1061">
<rect width="50" height="50" fill="white"/>
</clipPath>
</defs>
</svg>
